
<svg width="132px" height="56px" viewBox="485 384 132 56" version="1.1" xmlns="http://www.w3.org/2000/svg" xmlns:xlink="http://www.w3.org/1999/xlink">
    <!-- Generator: Sketch 40.1 (33804) - http://www.bohemiancoding.com/sketch -->
    <desc>Created with Sketch.</desc>
    <defs></defs>
    <path d="M512.944888,396.785011 C476.342946,396.785011 533.101118,396.335551 503.716907,397.854743 C490.852979,398.51982 483.402715,398.265058 486.403095,395.834288 C487.751826,394.741609 489.785548,394.193867 491.684715,394.050511 C525.073082,391.530236 557.970491,389.963239 591.172287,388.582847 C591.44914,388.571336 591.020943,387.955925 590.749757,388.002518 L554.212498,393.708197 C539.5874,396.220934 525.126482,399.340895 510.485633,401.792691 C507.596938,402.27644 504.550227,403.057219 501.680182,402.5054 C499.163273,402.021477 502.847198,399.165529 503.147482,399.05819 C504.457313,398.589981 519.384329,395.137798 522.077139,391.568734 C522.501764,391.005935 520.022259,389.839392 520.022259,390.499003 L519.583224,388.834234 C519.583224,400.251653 520.083773,408.916711 513.859268,419.385759 C511.473888,423.397751 509.340101,427.636713 505.789943,431.03647 C495.064856,441.307192 504.213812,427.166142 507.257243,425.686477 C508.612333,425.027654 510.100281,424.470242 511.659143,424.259723 C513.685514,423.986068 516.023226,423.455993 517.822134,424.259723 C522.972771,426.560962 526.470616,430.86614 531.615416,433.175933 C534.359191,434.40777 537.730254,434.429837 540.859902,434.602687 C544.23001,434.788818 547.779575,435.111197 550.984108,434.245664 C554.613827,433.26529 557.597297,431.10231 560.667628,429.252693 C563.336996,427.644623 565.798863,425.80965 568.151024,423.904037 C570.357145,422.116739 572.398684,420.192278 574.314015,418.19702 C575.488591,416.973429 576.716314,415.722889 577.39551,414.273781 C578.257666,412.434319 579.388824,410.412791 578.86281,408.491883 C578.218111,406.137553 571.173062,406.483452 570.05901,406.709444 C565.954262,407.542114 549.386519,418.377814 552.010723,422.758087 C553.219834,424.776314 557.215176,424.356424 559.934804,424.778542 C563.118582,425.272702 566.388736,425.70188 569.619975,425.491251 C579.217649,424.865624 589.156878,424.886284 598.233153,422.282057 C603.741653,420.70152 607.691309,416.667494 611.87954,413.365847 C613.197275,412.327055 613.874858,410.837353 614.52035,409.442607 C615.2076,407.957633 615.663646,406.386077 615.840755,404.806659 C615.960955,403.734743 616.288864,402.397466 615.40007,401.597465 C599.850567,387.60142 562.595387,394.115961 547.755717,406.471428 C541.029146,412.071953 534.401853,422.773314 540.125426,430.722237 C550.794244,445.539136 587.307994,439.564279 596.805465,426.605108 C599.797604,422.522376 607.039819,409.054653 600.768331,406.514218" id="Path-2" stroke="#FFFFFF" stroke-width="1" fill="none"></path>
</svg>